<?xml version="1.0" encoding="utf-8"?>
<!-- Generator: Adobe Illustrator 16.0.0, SVG Export Plug-In . SVG Version: 6.00 Build 0)  -->
<!DOCTYPE svg PUBLIC "-//W3C//DTD SVG 1.1//EN" "http://www.w3.org/Graphics/SVG/1.1/DTD/svg11.dtd">
<svg version="1.1" id="Layer_1" xmlns="http://www.w3.org/2000/svg" xmlns:xlink="http://www.w3.org/1999/xlink" x="0px" y="0px"
	 width="789.497px" height="72.731px" viewBox="0 0 789.497 72.731" enable-background="new 0 0 789.497 72.731"
	 xml:space="preserve">
<g>
	<g>
		<path d="M595.607,60.82c47.158-14.961,94.316-29.922,141.475-44.882c4.26-1.352,8.521-2.703,12.78-4.055
			c7.348-2.331,4.207-13.918-3.189-11.571c-47.158,14.96-94.316,29.921-141.474,44.881c-4.261,1.352-8.521,2.703-12.781,4.055
			C585.07,51.579,588.211,63.167,595.607,60.82L595.607,60.82z"/>
	</g>
</g>
<g>
	<g>
		<path d="M7.372,72.42c47.158-14.961,94.316-29.922,141.474-44.883c3.456-1.096,6.912-2.192,10.367-3.289
			c0.712-0.226,1.424-0.452,2.136-0.678c1.613-0.512-4.427-0.558-2.431,0.062c7.118,2.209,14.235,4.419,21.353,6.628
			c29.532,9.167,59.065,18.334,88.597,27.502c12.079,3.749,24.158,7.499,36.236,11.248c3.952,1.227,10.393,4.607,14.661,3.253
			c21.279-6.75,42.557-13.501,63.835-20.251c27.083-8.593,54.167-17.185,81.251-25.777c2.639-0.837,5.277-1.674,7.916-2.512
			c1.91-0.606-4.795-0.977-0.546,0.343c8.551,2.656,17.101,5.312,25.65,7.968c29.906,9.291,59.812,18.581,89.72,27.872
			c11.028,3.426,22.057,6.853,33.086,10.278c4.283,1.331,7.871,3.03,12.3,1.625c49.015-15.55,98.03-31.1,147.046-46.65
			c1.764-0.56,3.527-1.119,5.29-1.678c7.348-2.331,4.207-13.918-3.189-11.571c-47.158,14.961-94.316,29.922-141.474,44.882
			c-3.456,1.097-6.912,2.193-10.368,3.289c-0.712,0.227-1.424,0.452-2.136,0.678c-1.613,0.512,4.426,0.559,2.432-0.062
			c-7.113-2.209-14.226-4.419-21.338-6.628c-29.51-9.167-59.02-18.335-88.529-27.502c-12.069-3.75-24.14-7.499-36.209-11.249
			c-3.95-1.228-10.386-4.607-14.653-3.253c-21.278,6.75-42.557,13.501-63.835,20.251c-27.084,8.592-54.167,17.185-81.251,25.776
			c-2.639,0.837-5.277,1.675-7.917,2.512c-1.909,0.605,4.796,0.977,0.544-0.343c-8.556-2.656-17.113-5.312-25.669-7.969
			c-29.929-9.29-59.858-18.581-89.787-27.872c-11.037-3.426-22.074-6.852-33.111-10.278c-4.285-1.33-7.875-3.031-12.305-1.625
			C107.503,28.07,58.487,43.62,9.472,59.17c-1.763,0.56-3.526,1.119-5.29,1.678C-3.166,63.179-0.025,74.767,7.372,72.42L7.372,72.42
			z"/>
	</g>
</g>
</svg>
